<?xml version="1.0" encoding="UTF-8"?>
<svg id="Layer_2" data-name="Layer 2" xmlns="http://www.w3.org/2000/svg" viewBox="0 0 1500.44 252.57">
  <defs>
    <style>
      .cls-1 {
        fill: #fff;
      }
    </style>
  </defs>
  <g id="Camada_1" data-name="Camada 1">
    <g>
      <rect class="cls-1" x="181.33" y="52.34" width="36.79" height="136.07"/>
      <rect class="cls-1" x="422.48" y="52.34" width="36.79" height="136.07"/>
      <path class="cls-1" d="M540.1,134.95v-53.04h36.92v-29.57h-37.54V16.82h-7.03l-53.74,57.13v7.89h24.59v57.9c0,30.26,18.42,48.59,48.33,48.59h26.21v-32.76h-16.79c-13.39,.08-20.96-7.47-20.96-20.62Z"/>
      <rect class="cls-1" x="776.76" y="3.3" width="36.79" height="185.11"/>
      <rect class="cls-1" x="848.83" y="52.34" width="36.79" height="136.07"/>
      <polygon class="cls-1" points="1020.95 57.36 1020.95 52.34 914.11 52.34 914.11 85.71 966.52 85.71 908.5 184.31 908.5 188.41 1020.99 188.41 1020.99 154.57 963.65 154.57 1020.95 57.36"/>
      <rect class="cls-1" x="1463.65" y="52.34" width="36.79" height="136.07"/>
      <path class="cls-1" d="M145.41,3.3h-36.25V56.51c-11.04-6.39-23.57-9.74-36.33-9.72h0C32.6,46.8,0,79.42,0,119.65v.03H0C0,159.9,32.61,192.5,72.83,192.5h0c37.85,0,69.38-29,72.55-66.71h0v-.22c.17-1.95,.03-122.27,.03-122.27ZM72.83,156.09h0c-20.11,.38-36.72-15.61-37.11-35.72-.38-20.11,15.61-36.72,35.72-37.11,.46,0,.92,0,1.38,0h0c19.21,0,35.12,14.93,36.33,34.11v4.62c-1.21,19.18-17.12,34.11-36.33,34.11Z"/>
      <path class="cls-1" d="M315.77,46.84h0c-40.22,0-72.82,32.61-72.83,72.83h0c0,40.22,32.61,72.83,72.83,72.83h0c40.22,0,72.83-32.61,72.83-72.83h0c0-40.22-32.61-72.82-72.83-72.83Zm0,109.21h0c-20.11,.38-36.72-15.61-37.11-35.72-.38-20.11,15.61-36.72,35.72-37.11,.46,0,.92,0,1.38,0h0c20.11-.38,36.72,15.61,37.11,35.72,.38,20.11-15.61,36.72-35.72,37.11-.46,0-.92,0-1.38,0Z"/>
      <path class="cls-1" d="M315.77,216.1h0c-10.96,0-21.34-4.94-28.25-13.45h-40.86c9.87,29.79,37.72,49.91,69.11,49.92h0c31.37,0,59.21-20.09,69.11-49.86h-40.86c-6.92,8.49-17.3,13.4-28.25,13.38Z"/>
      <path class="cls-1" d="M749.58,111.07c-4.37-36.65-35.46-64.24-72.37-64.22h0c-40.19,.04-72.76,32.64-72.76,72.83h0c0,40.22,32.61,72.83,72.83,72.83h0c12.75,.03,25.28-3.31,36.33-9.67v5.62h36.24l.26-68.72c0-2.04-.53-8.66-.53-8.66Zm-72.37,45.03h0c-20.11,.38-36.72-15.61-37.11-35.72-.38-20.11,15.61-36.72,35.72-37.11,.46,0,.92,0,1.38,0h0c19.21,0,35.12,14.93,36.33,34.11v4.62c-1.21,19.15-17.08,34.07-36.26,34.11h-.07Z"/>
      <path class="cls-1" d="M1191.89,111.07c-4.37-36.65-35.46-64.24-72.37-64.22h0c-40.19,.04-72.76,32.64-72.76,72.83h0c0,40.22,32.61,72.83,72.83,72.83h0c12.75,.01,25.29-3.34,36.33-9.72v5.62h36.24l.26-68.72c0-1.99-.53-8.61-.53-8.61Zm-72.37,45.03h0c-20.11,.38-36.72-15.61-37.11-35.72-.38-20.11,15.61-36.72,35.72-37.11,.46,0,.92,0,1.38,0h0c19.21,0,35.11,14.93,36.33,34.11v4.62c-1.21,19.15-17.08,34.07-36.26,34.11h-.07Z"/>
      <path class="cls-1" d="M1426,111.07c-4.36-36.63-35.42-64.21-72.3-64.22h0c-40.22,0-72.82,32.61-72.83,72.83h0c0,40.22,32.61,72.83,72.83,72.83h0c12.75,.01,25.29-3.34,36.33-9.72v5.62h36.24l.29-68.72c0-1.99-.55-8.61-.55-8.61Zm-72.3,45.03h0c-20.11,.38-36.72-15.61-37.11-35.72-.38-20.11,15.61-36.72,35.72-37.11,.46,0,.92,0,1.38,0h0c19.21,0,35.11,14.93,36.33,34.11v4.62c-1.22,19.17-17.12,34.1-36.33,34.11h0Z"/>
      <circle class="cls-1" cx="199.73" cy="18.33" r="18.33"/>
      <circle class="cls-1" cx="440.86" cy="18.51" r="18.33"/>
      <circle class="cls-1" cx="867.22" cy="18.51" r="18.33"/>
      <circle class="cls-1" cx="1482.05" cy="18.51" r="18.33"/>
      <circle class="cls-1" cx="1237.65" cy="168.73" r="19.67"/>
    </g>
  </g>
</svg>